<?xml version="1.0" encoding="utf-8"?>
<svg width="612px" height="519.7059px" viewBox="0 0 612 519.7059" version="1.1" xmlns:xlink="http://www.w3.org/1999/xlink" xmlns="http://www.w3.org/2000/svg">
  <defs>
    <linearGradient gradientUnits="userSpaceOnUse" x1="0" y1="-30.529417" x2="612" y2="458.64713" id="gradient_1">
      <stop offset="0%" stop-color="#F84100" />
      <stop offset="100%" stop-color="#F9D213" />
    </linearGradient>
    <linearGradient gradientUnits="userSpaceOnUse" x1="114.353004" y1="149.47058" x2="1223.9104" y2="1090.2021" id="gradient_2">
      <stop offset="0%" stop-color="#F80505" />
      <stop offset="50.617283%" stop-color="#FFA930" />
    </linearGradient>
    <path d="M0 0L612 0L612 519.706L0 519.706L0 0Z" id="path_1" />
    <path d="M91.798 0L520.202 0C521.705 0 523.206 0.0368555 524.706 0.110568C526.206 0.184281 527.705 0.294782 529.2 0.442069C530.695 0.589221 532.186 0.773025 533.672 0.993481C535.157 1.21394 536.637 1.47071 538.111 1.76378C539.584 2.05686 541.049 2.38592 542.507 2.75094C543.964 3.1161 545.412 3.51669 546.851 3.9527C548.288 4.38886 549.714 4.85996 551.128 5.36602C552.543 5.87221 553.944 6.41274 555.331 6.98761C556.719 7.56262 558.093 8.17129 559.452 8.81362C560.809 9.45595 562.15 10.1312 563.475 10.8393C564.801 11.5475 566.107 12.2878 567.395 13.0603C568.685 13.8326 569.954 14.6361 571.202 15.4708C572.452 16.3054 573.68 17.1701 574.886 18.065C576.093 18.96 577.276 19.8841 578.438 20.8372C579.599 21.7903 580.736 22.7712 581.849 23.7801C582.963 24.7891 584.051 25.8247 585.113 26.887C586.175 27.9493 587.211 29.037 588.22 30.1502C589.229 31.2633 590.21 32.4006 591.164 33.5619C592.115 34.7232 593.04 35.9072 593.936 37.1139C594.831 38.3207 595.695 39.5486 596.529 40.7978C597.364 42.0469 598.167 43.3158 598.94 44.6044C599.712 45.893 600.453 47.1998 601.162 48.5247C601.869 49.8496 602.544 51.1911 603.187 52.5492C603.829 53.9073 604.438 55.2803 605.013 56.6683C605.587 58.0564 606.127 59.4576 606.633 60.8722C607.14 62.2867 607.611 63.7128 608.047 65.1505C608.483 66.5881 608.884 68.0356 609.248 69.4928C609.614 70.9502 609.943 72.4156 610.235 73.889C610.529 75.3624 610.786 76.8422 611.007 78.3284C611.227 79.8145 611.41 81.3051 611.557 82.8001C611.706 84.2953 611.816 85.7932 611.89 87.2936C611.963 88.7941 612 90.2956 612 91.798L612 397.379C612 398.88 611.963 400.382 611.89 401.883C611.816 403.383 611.706 404.881 611.557 406.375C611.41 407.871 611.227 409.362 611.007 410.847C610.786 412.334 610.529 413.814 610.235 415.288C609.943 416.761 609.614 418.226 609.248 419.684C608.884 421.141 608.483 422.588 608.047 424.025C607.611 425.463 607.14 426.889 606.633 428.303C606.127 429.719 605.587 431.121 605.013 432.508C604.438 433.896 603.829 435.269 603.187 436.627C602.544 437.985 601.869 439.327 601.162 440.651C600.453 441.976 599.712 443.283 598.94 444.572C598.167 445.86 597.364 447.129 596.529 448.379C595.695 449.627 594.831 450.856 593.936 452.063C593.04 453.27 592.115 454.453 591.164 455.615C590.21 456.776 589.229 457.913 588.22 459.026C587.211 460.14 586.175 461.228 585.113 462.29C584.051 463.352 582.963 464.388 581.849 465.397C580.736 466.406 579.599 467.386 578.438 468.338C577.276 469.292 576.093 470.216 574.886 471.111C573.68 472.006 572.452 472.871 571.202 473.706C569.954 474.541 568.685 475.344 567.395 476.117C566.107 476.889 564.801 477.629 563.475 478.336C562.15 479.045 560.809 479.72 559.452 480.362C558.093 481.005 556.719 481.614 555.331 482.188C553.944 482.763 552.543 483.304 551.128 483.81C549.714 484.316 548.288 484.787 546.851 485.223C545.412 485.66 543.964 486.06 542.507 486.425C541.049 486.791 539.584 487.12 538.111 487.412C536.637 487.706 535.157 487.963 533.672 488.183C532.186 488.404 530.695 488.587 529.2 488.734C527.705 488.881 526.206 488.992 524.706 489.067C523.206 489.14 521.705 489.177 520.202 489.177L91.798 489.177C90.2956 489.177 88.7941 489.14 87.2936 489.067C85.7932 488.992 84.2953 488.881 82.8001 488.734C81.3051 488.587 79.8145 488.404 78.3285 488.183C76.8424 487.963 75.3626 487.706 73.889 487.412C72.4156 487.12 70.9502 486.791 69.4928 486.425C68.0356 486.06 66.5881 485.66 65.1505 485.223C63.7128 484.787 62.2867 484.316 60.8722 483.81C59.4576 483.304 58.0564 482.763 56.6683 482.188C55.2805 481.614 53.9074 481.005 52.5492 480.362C51.1911 479.72 49.8496 479.045 48.5247 478.336C47.1998 477.629 45.893 476.889 44.6044 476.117C43.3158 475.344 42.0469 474.541 40.7978 473.706C39.5486 472.871 38.3207 472.006 37.1139 471.111C35.9073 470.216 34.7233 469.292 33.5619 468.338C32.4006 467.386 31.2633 466.406 30.1502 465.397C29.037 464.388 27.9493 463.352 26.887 462.29C25.8247 461.228 24.7891 460.14 23.7801 459.026C22.7712 457.913 21.7903 456.776 20.8372 455.615C19.8841 454.453 18.9601 453.27 18.0651 452.063C17.1702 450.856 16.3054 449.627 15.4707 448.379C14.6361 447.129 13.8326 445.86 13.0602 444.572C12.2879 443.283 11.5476 441.976 10.8394 440.651C10.1312 439.327 9.45592 437.985 8.8136 436.627C8.17125 435.269 7.56262 433.896 6.98769 432.508C6.41278 431.121 5.87226 429.719 5.36614 428.303C4.86001 426.889 4.3889 425.463 3.95279 424.025C3.51667 422.588 3.1161 421.141 2.75106 419.684C2.38602 418.226 2.05696 416.761 1.76387 415.288C1.47078 413.814 1.21401 412.334 0.993574 410.847C0.773134 409.362 0.589287 407.871 0.442031 406.375C0.294777 404.881 0.184292 403.383 0.110575 401.883C0.0368582 400.382 0 398.88 0 397.379L0 91.798C0 90.2956 0.0368582 88.7941 0.110575 87.2936C0.184292 85.7932 0.294777 84.2953 0.442031 82.8001C0.589287 81.3051 0.773134 79.8145 0.993574 78.3284C1.21401 76.8422 1.47078 75.3624 1.76387 73.889C2.05696 72.4156 2.38602 70.9502 2.75106 69.4928C3.1161 68.0356 3.51667 66.5881 3.95279 65.1505C4.3889 63.7128 4.86001 62.2867 5.36614 60.8722C5.87226 59.4576 6.41278 58.0564 6.98769 56.6683C7.56262 55.2803 8.17125 53.9073 8.8136 52.5492C9.45592 51.1911 10.1312 49.8496 10.8394 48.5247C11.5476 47.1998 12.2879 45.893 13.0602 44.6044C13.8326 43.3158 14.6361 42.0469 15.4707 40.7978C16.3054 39.5486 17.1702 38.3207 18.0651 37.1139C18.9601 35.9072 19.8841 34.7232 20.8372 33.5619C21.7903 32.4006 22.7712 31.2633 23.7801 30.1502C24.7891 29.037 25.8247 27.9493 26.887 26.887C27.9493 25.8247 29.037 24.7891 30.1502 23.7801C31.2633 22.7712 32.4006 21.7903 33.5619 20.8372C34.7233 19.8841 35.9073 18.96 37.1139 18.065C38.3207 17.1701 39.5486 16.3054 40.7978 15.4708C42.0469 14.6361 43.3158 13.8326 44.6044 13.0603C45.893 12.2878 47.1998 11.5475 48.5247 10.8393C49.8496 10.1312 51.1911 9.45595 52.5492 8.81362C53.9074 8.17129 55.2805 7.56262 56.6683 6.98761C58.0564 6.41274 59.4576 5.87221 60.8722 5.36602C62.2867 4.85996 63.7128 4.38886 65.1505 3.9527C66.5881 3.51669 68.0356 3.1161 69.4928 2.75094C70.9502 2.38592 72.4156 2.05686 73.889 1.76378C75.3626 1.47071 76.8424 1.21394 78.3285 0.993481C79.8145 0.773025 81.3051 0.589221 82.8001 0.442069C84.2953 0.294782 85.7932 0.184281 87.2936 0.110568C88.7941 0.0368555 90.2956 0 91.798 0L91.798 0Z" id="path_2" />
    <path d="M33.915 51.765C35.105 52.955 36.55 53.55 38.25 53.55L127.5 53.55L127.5 249.39C127.5 270.47 124.27 285.005 117.81 292.995C111.35 300.985 102.85 304.98 92.31 304.98C81.43 304.98 73.015 301.495 67.065 294.525C61.115 287.555 58.14 271.83 58.14 247.35L58.14 231.54C58.14 229.84 57.545 228.225 56.355 226.695C55.165 225.165 53.72 224.4 52.02 224.4L6.12 224.4C4.24293 224.4 2.79766 224.868 1.78418 225.803C0.59473 226.901 0 228.643 0 231.03L0 243.27C0 287.47 8.075 317.73 24.225 334.05C40.375 350.37 62.9 358.53 91.8 358.53C120.7 358.53 143.48 350.37 160.14 334.05C176.8 317.73 185.13 288.66 185.13 246.84L185.13 6.12C185.13 4.42 184.45 2.975 183.09 1.785C181.73 0.595002 180.2 0 178.5 0L38.25 0C36.55 0 35.105 0.595002 33.915 1.785C32.725 2.975 32.13 4.42 32.13 6.12L32.13 46.92C32.13 48.96 32.725 50.575 33.915 51.765L33.915 51.765ZM416.16 353.43C417.52 353.77 420.07 353.94 423.81 353.94L467.67 353.94C471.466 353.94 473.677 353.235 474.304 351.827C474.743 350.838 474.402 349.502 473.28 347.82L393.21 202.47C410.89 194.31 424.915 181.985 435.285 165.495C445.655 149.005 450.84 129.37 450.84 106.59C450.84 75.31 440.81 49.725 420.75 29.835C400.69 9.945 371.96 0 334.56 0L258.57 0C256.87 0 255.425 0.51 254.235 1.53C253.045 2.55 252.45 3.91 252.45 5.61L252.45 348.33C252.45 352.07 254.49 353.94 258.57 353.94L301.92 353.94C306.34 353.94 308.55 352.07 308.55 348.33L308.55 214.71L340.68 214.71L411.57 349.35C413.27 351.73 414.8 353.09 416.16 353.43L416.16 353.43ZM308.55 161.67L308.55 53.55L340.17 53.55C356.15 53.55 369.07 57.8 378.93 66.3C388.79 74.8 393.72 88.4 393.72 107.1C393.72 125.46 388.45 139.145 377.91 148.155C367.37 157.165 352.58 161.67 333.54 161.67L308.55 161.67L308.55 161.67Z" id="path_3" />
    <clipPath id="mask_1">
      <use xlink:href="#path_1" />
    </clipPath>
    <clipPath id="mask_2">
      <use xlink:href="#path_2" />
    </clipPath>
    <clipPath id="mask_3">
      <use xlink:href="#path_3" />
    </clipPath>
  </defs>
  <g id="svg">
    <path d="M0 0L612 0L612 519.706L0 519.706L0 0Z" id="Background" fill="#FFFFFF" fill-opacity="0" fill-rule="evenodd" stroke="none" />
    <g clip-path="url(#mask_1)">
      <g id="Mask-Mask" transform="translate(0 30.529419)">
        <g id="Rectangle-2">
          <path d="M91.798 -1.71661e-05L520.202 -1.71661e-05C521.705 -1.71661e-05 523.206 0.0368383 524.706 0.110551C526.206 0.184264 527.705 0.294764 529.2 0.442052C530.695 0.589203 532.186 0.773008 533.672 0.993464C535.157 1.21392 536.637 1.47069 538.111 1.76377C539.584 2.05685 541.049 2.3859 542.507 2.75092C543.964 3.11608 545.412 3.51667 546.851 3.95269C548.288 4.38884 549.714 4.85994 551.128 5.366C552.543 5.87219 553.944 6.41272 555.331 6.98759C556.719 7.5626 558.093 8.17127 559.452 8.8136C560.809 9.45593 562.15 10.1312 563.475 10.8393C564.801 11.5475 566.107 12.2878 567.395 13.0603C568.685 13.8326 569.954 14.6361 571.202 15.4707C572.452 16.3054 573.68 17.1701 574.886 18.065C576.093 18.96 577.276 19.8841 578.438 20.8372C579.599 21.7902 580.736 22.7712 581.849 23.7801C582.963 24.789 584.051 25.8247 585.113 26.887C586.175 27.9493 587.211 29.037 588.22 30.1502C589.229 31.2633 590.21 32.4006 591.164 33.5619C592.115 34.7232 593.04 35.9072 593.936 37.1139C594.831 38.3206 595.695 39.5486 596.529 40.7977C597.364 42.0469 598.167 43.3158 598.94 44.6044C599.712 45.893 600.453 47.1997 601.162 48.5246C601.869 49.8496 602.544 51.1911 603.187 52.5492C603.829 53.9073 604.438 55.2803 605.013 56.6683C605.587 58.0563 606.127 59.4576 606.633 60.8722C607.14 62.2867 607.611 63.7128 608.047 65.1505C608.483 66.5881 608.884 68.0355 609.248 69.4928C609.614 70.9502 609.943 72.4156 610.235 73.889C610.529 75.3624 610.786 76.8422 611.007 78.3284C611.227 79.8145 611.41 81.3051 611.557 82.8001C611.706 84.2953 611.816 85.7931 611.89 87.2936C611.963 88.7941 612 90.2956 612 91.798L612 397.379C612 398.88 611.963 400.382 611.89 401.883C611.816 403.383 611.706 404.881 611.557 406.375C611.41 407.871 611.227 409.362 611.007 410.847C610.786 412.333 610.529 413.814 610.235 415.288C609.943 416.761 609.614 418.226 609.248 419.684C608.884 421.141 608.483 422.588 608.047 424.025C607.611 425.463 607.14 426.889 606.633 428.303C606.127 429.719 605.587 431.121 605.013 432.508C604.438 433.896 603.829 435.269 603.187 436.626C602.544 437.985 601.869 439.327 601.162 440.651C600.453 441.976 599.712 443.283 598.94 444.572C598.167 445.86 597.364 447.129 596.529 448.379C595.695 449.627 594.831 450.856 593.936 452.063C593.04 453.27 592.115 454.453 591.164 455.615C590.21 456.776 589.229 457.913 588.22 459.026C587.211 460.14 586.175 461.228 585.113 462.29C584.051 463.352 582.963 464.388 581.849 465.397C580.736 466.406 579.599 467.386 578.438 468.338C577.276 469.292 576.093 470.216 574.886 471.111C573.68 472.006 572.452 472.871 571.202 473.706C569.954 474.541 568.685 475.344 567.395 476.117C566.107 476.889 564.801 477.629 563.475 478.336C562.15 479.045 560.809 479.72 559.452 480.362C558.093 481.005 556.719 481.614 555.331 482.188C553.944 482.763 552.543 483.304 551.128 483.81C549.714 484.316 548.288 484.787 546.851 485.223C545.412 485.66 543.964 486.06 542.507 486.425C541.049 486.791 539.584 487.12 538.111 487.412C536.637 487.706 535.157 487.963 533.672 488.183C532.186 488.404 530.695 488.587 529.2 488.734C527.705 488.881 526.206 488.992 524.706 489.067C523.206 489.14 521.705 489.177 520.202 489.177L91.798 489.177C90.2956 489.177 88.7941 489.14 87.2936 489.067C85.7932 488.992 84.2953 488.881 82.8001 488.734C81.3051 488.587 79.8145 488.404 78.3285 488.183C76.8424 487.963 75.3626 487.706 73.889 487.412C72.4156 487.12 70.9502 486.791 69.4928 486.425C68.0356 486.06 66.5881 485.66 65.1505 485.223C63.7128 484.787 62.2867 484.316 60.8722 483.81C59.4576 483.304 58.0564 482.763 56.6683 482.188C55.2805 481.614 53.9074 481.005 52.5492 480.362C51.1911 479.72 49.8496 479.045 48.5247 478.336C47.1998 477.629 45.893 476.889 44.6044 476.117C43.3158 475.344 42.0469 474.541 40.7978 473.706C39.5486 472.871 38.3207 472.006 37.1139 471.111C35.9073 470.216 34.7233 469.292 33.5619 468.338C32.4006 467.386 31.2633 466.406 30.1502 465.397C29.037 464.388 27.9493 463.352 26.887 462.29C25.8247 461.228 24.7891 460.14 23.7801 459.026C22.7712 457.913 21.7903 456.776 20.8372 455.615C19.8841 454.453 18.9601 453.27 18.0651 452.063C17.1702 450.856 16.3054 449.627 15.4707 448.379C14.6361 447.129 13.8326 445.86 13.0602 444.572C12.2879 443.283 11.5476 441.976 10.8394 440.651C10.1312 439.327 9.45592 437.985 8.8136 436.626C8.17125 435.269 7.56262 433.896 6.98769 432.508C6.41278 431.121 5.87226 429.719 5.36614 428.303C4.86001 426.889 4.3889 425.463 3.95279 424.025C3.51667 422.588 3.1161 421.141 2.75106 419.684C2.38602 418.226 2.05696 416.761 1.76387 415.288C1.47078 413.814 1.21401 412.333 0.993574 410.847C0.773134 409.362 0.589287 407.871 0.442031 406.375C0.294777 404.881 0.184292 403.383 0.110575 401.883C0.0368582 400.382 0 398.88 0 397.379L0 91.798C0 90.2956 0.0368582 88.7941 0.110575 87.2936C0.184292 85.7931 0.294777 84.2953 0.442031 82.8001C0.589287 81.3051 0.773134 79.8145 0.993574 78.3284C1.21401 76.8422 1.47078 75.3624 1.76387 73.889C2.05696 72.4156 2.38602 70.9502 2.75106 69.4928C3.1161 68.0355 3.51667 66.5881 3.95279 65.1505C4.3889 63.7128 4.86001 62.2867 5.36614 60.8722C5.87226 59.4576 6.41278 58.0563 6.98769 56.6683C7.56262 55.2803 8.17125 53.9073 8.8136 52.5492C9.45592 51.1911 10.1312 49.8496 10.8394 48.5246C11.5476 47.1997 12.2879 45.893 13.0602 44.6044C13.8326 43.3158 14.6361 42.0469 15.4707 40.7977C16.3054 39.5486 17.1702 38.3206 18.0651 37.1139C18.9601 35.9072 19.8841 34.7232 20.8372 33.5619C21.7903 32.4006 22.7712 31.2633 23.7801 30.1502C24.7891 29.037 25.8247 27.9493 26.887 26.887C27.9493 25.8247 29.037 24.789 30.1502 23.7801C31.2633 22.7712 32.4006 21.7902 33.5619 20.8372C34.7233 19.8841 35.9073 18.96 37.1139 18.065C38.3207 17.1701 39.5486 16.3054 40.7978 15.4707C42.0469 14.6361 43.3158 13.8326 44.6044 13.0603C45.893 12.2878 47.1998 11.5475 48.5247 10.8393C49.8496 10.1312 51.1911 9.45593 52.5492 8.8136C53.9074 8.17127 55.2805 7.5626 56.6683 6.98759C58.0564 6.41272 59.4576 5.87219 60.8722 5.366C62.2867 4.85994 63.7128 4.38884 65.1505 3.95269C66.5881 3.51667 68.0356 3.11608 69.4928 2.75092C70.9502 2.3859 72.4156 2.05685 73.889 1.76377C75.3626 1.47069 76.8424 1.21392 78.3285 0.993464C79.8145 0.773008 81.3051 0.589203 82.8001 0.442052C84.2953 0.294764 85.7932 0.184264 87.2936 0.110551C88.7941 0.0368383 90.2956 -1.71661e-05 91.798 -1.71661e-05L91.798 -1.71661e-05Z" id="path_1" fill="#D3D3D3" fill-opacity="0" stroke="none" />
          <g id="Mask-Group" transform="translate(0 -1.7166138E-05)">
            <path d="M91.798 0L520.202 0C521.705 0 523.206 0.0368555 524.706 0.110568C526.206 0.184281 527.705 0.294782 529.2 0.442069C530.695 0.589221 532.186 0.773025 533.672 0.993481C535.157 1.21394 536.637 1.47071 538.111 1.76378C539.584 2.05686 541.049 2.38592 542.507 2.75094C543.964 3.1161 545.412 3.51669 546.851 3.9527C548.288 4.38886 549.714 4.85996 551.128 5.36602C552.543 5.87221 553.944 6.41274 555.331 6.98761C556.719 7.56262 558.093 8.17129 559.452 8.81362C560.809 9.45595 562.15 10.1312 563.475 10.8393C564.801 11.5475 566.107 12.2878 567.395 13.0603C568.685 13.8326 569.954 14.6361 571.202 15.4708C572.452 16.3054 573.68 17.1701 574.886 18.065C576.093 18.96 577.276 19.8841 578.438 20.8372C579.599 21.7903 580.736 22.7712 581.849 23.7801C582.963 24.7891 584.051 25.8247 585.113 26.887C586.175 27.9493 587.211 29.037 588.22 30.1502C589.229 31.2633 590.21 32.4006 591.164 33.5619C592.115 34.7232 593.04 35.9072 593.936 37.1139C594.831 38.3207 595.695 39.5486 596.529 40.7978C597.364 42.0469 598.167 43.3158 598.94 44.6044C599.712 45.893 600.453 47.1998 601.162 48.5247C601.869 49.8496 602.544 51.1911 603.187 52.5492C603.829 53.9073 604.438 55.2803 605.013 56.6683C605.587 58.0564 606.127 59.4576 606.633 60.8722C607.14 62.2867 607.611 63.7128 608.047 65.1505C608.483 66.5881 608.884 68.0356 609.248 69.4928C609.614 70.9502 609.943 72.4156 610.235 73.889C610.529 75.3624 610.786 76.8422 611.007 78.3284C611.227 79.8145 611.41 81.3051 611.557 82.8001C611.706 84.2953 611.816 85.7932 611.89 87.2936C611.963 88.7941 612 90.2956 612 91.798L612 397.379C612 398.88 611.963 400.382 611.89 401.883C611.816 403.383 611.706 404.881 611.557 406.375C611.41 407.871 611.227 409.362 611.007 410.847C610.786 412.334 610.529 413.814 610.235 415.288C609.943 416.761 609.614 418.226 609.248 419.684C608.884 421.141 608.483 422.588 608.047 424.025C607.611 425.463 607.14 426.889 606.633 428.303C606.127 429.719 605.587 431.121 605.013 432.508C604.438 433.896 603.829 435.269 603.187 436.627C602.544 437.985 601.869 439.327 601.162 440.651C600.453 441.976 599.712 443.283 598.94 444.572C598.167 445.86 597.364 447.129 596.529 448.379C595.695 449.627 594.831 450.856 593.936 452.063C593.04 453.27 592.115 454.453 591.164 455.615C590.21 456.776 589.229 457.913 588.22 459.026C587.211 460.14 586.175 461.228 585.113 462.29C584.051 463.352 582.963 464.388 581.849 465.397C580.736 466.406 579.599 467.386 578.438 468.338C577.276 469.292 576.093 470.216 574.886 471.111C573.68 472.006 572.452 472.871 571.202 473.706C569.954 474.541 568.685 475.344 567.395 476.117C566.107 476.889 564.801 477.629 563.475 478.336C562.15 479.045 560.809 479.72 559.452 480.362C558.093 481.005 556.719 481.614 555.331 482.188C553.944 482.763 552.543 483.304 551.128 483.81C549.714 484.316 548.288 484.787 546.851 485.223C545.412 485.66 543.964 486.06 542.507 486.425C541.049 486.791 539.584 487.12 538.111 487.412C536.637 487.706 535.157 487.963 533.672 488.183C532.186 488.404 530.695 488.587 529.2 488.734C527.705 488.881 526.206 488.992 524.706 489.067C523.206 489.14 521.705 489.177 520.202 489.177L91.798 489.177C90.2956 489.177 88.7941 489.14 87.2936 489.067C85.7932 488.992 84.2953 488.881 82.8001 488.734C81.3051 488.587 79.8145 488.404 78.3285 488.183C76.8424 487.963 75.3626 487.706 73.889 487.412C72.4156 487.12 70.9502 486.791 69.4928 486.425C68.0356 486.06 66.5881 485.66 65.1505 485.223C63.7128 484.787 62.2867 484.316 60.8722 483.81C59.4576 483.304 58.0564 482.763 56.6683 482.188C55.2805 481.614 53.9074 481.005 52.5492 480.362C51.1911 479.72 49.8496 479.045 48.5247 478.336C47.1998 477.629 45.893 476.889 44.6044 476.117C43.3158 475.344 42.0469 474.541 40.7978 473.706C39.5486 472.871 38.3207 472.006 37.1139 471.111C35.9073 470.216 34.7233 469.292 33.5619 468.338C32.4006 467.386 31.2633 466.406 30.1502 465.397C29.037 464.388 27.9493 463.352 26.887 462.29C25.8247 461.228 24.7891 460.14 23.7801 459.026C22.7712 457.913 21.7903 456.776 20.8372 455.615C19.8841 454.453 18.9601 453.27 18.0651 452.063C17.1702 450.856 16.3054 449.627 15.4707 448.379C14.6361 447.129 13.8326 445.86 13.0602 444.572C12.2879 443.283 11.5476 441.976 10.8394 440.651C10.1312 439.327 9.45592 437.985 8.8136 436.627C8.17125 435.269 7.56262 433.896 6.98769 432.508C6.41278 431.121 5.87226 429.719 5.36614 428.303C4.86001 426.889 4.3889 425.463 3.95279 424.025C3.51667 422.588 3.1161 421.141 2.75106 419.684C2.38602 418.226 2.05696 416.761 1.76387 415.288C1.47078 413.814 1.21401 412.334 0.993574 410.847C0.773134 409.362 0.589287 407.871 0.442031 406.375C0.294777 404.881 0.184292 403.383 0.110575 401.883C0.0368582 400.382 0 398.88 0 397.379L0 91.798C0 90.2956 0.0368582 88.7941 0.110575 87.2936C0.184292 85.7932 0.294777 84.2953 0.442031 82.8001C0.589287 81.3051 0.773134 79.8145 0.993574 78.3284C1.21401 76.8422 1.47078 75.3624 1.76387 73.889C2.05696 72.4156 2.38602 70.9502 2.75106 69.4928C3.1161 68.0356 3.51667 66.5881 3.95279 65.1505C4.3889 63.7128 4.86001 62.2867 5.36614 60.8722C5.87226 59.4576 6.41278 58.0564 6.98769 56.6683C7.56262 55.2803 8.17125 53.9073 8.8136 52.5492C9.45592 51.1911 10.1312 49.8496 10.8394 48.5247C11.5476 47.1998 12.2879 45.893 13.0602 44.6044C13.8326 43.3158 14.6361 42.0469 15.4707 40.7978C16.3054 39.5486 17.1702 38.3207 18.0651 37.1139C18.9601 35.9072 19.8841 34.7232 20.8372 33.5619C21.7903 32.4006 22.7712 31.2633 23.7801 30.1502C24.7891 29.037 25.8247 27.9493 26.887 26.887C27.9493 25.8247 29.037 24.7891 30.1502 23.7801C31.2633 22.7712 32.4006 21.7903 33.5619 20.8372C34.7233 19.8841 35.9073 18.96 37.1139 18.065C38.3207 17.1701 39.5486 16.3054 40.7978 15.4708C42.0469 14.6361 43.3158 13.8326 44.6044 13.0603C45.893 12.2878 47.1998 11.5475 48.5247 10.8393C49.8496 10.1312 51.1911 9.45595 52.5492 8.81362C53.9074 8.17129 55.2805 7.56262 56.6683 6.98761C58.0564 6.41274 59.4576 5.87221 60.8722 5.36602C62.2867 4.85996 63.7128 4.38886 65.1505 3.9527C66.5881 3.51669 68.0356 3.1161 69.4928 2.75094C70.9502 2.38592 72.4156 2.05686 73.889 1.76378C75.3626 1.47071 76.8424 1.21394 78.3285 0.993481C79.8145 0.773025 81.3051 0.589221 82.8001 0.442069C84.2953 0.294782 85.7932 0.184281 87.2936 0.110568C88.7941 0.0368555 90.2956 0 91.798 0L91.798 0Z" id="path_1" fill="none" stroke="none" />
            <g clip-path="url(#mask_2)">
              <g id="Group">
                <path d="M91.798 0L520.202 0C521.705 0 523.206 0.0368555 524.706 0.110568C526.206 0.184281 527.705 0.294782 529.2 0.442069C530.695 0.589221 532.186 0.773025 533.672 0.993481C535.157 1.21394 536.637 1.47071 538.111 1.76378C539.584 2.05686 541.049 2.38592 542.507 2.75094C543.964 3.1161 545.412 3.51669 546.851 3.9527C548.288 4.38886 549.714 4.85996 551.128 5.36602C552.543 5.87221 553.944 6.41274 555.331 6.98761C556.719 7.56262 558.093 8.17129 559.452 8.81362C560.809 9.45595 562.15 10.1312 563.475 10.8393C564.801 11.5475 566.107 12.2878 567.395 13.0603C568.685 13.8326 569.954 14.6361 571.202 15.4708C572.452 16.3054 573.68 17.1701 574.886 18.065C576.093 18.96 577.276 19.8841 578.438 20.8372C579.599 21.7903 580.736 22.7712 581.849 23.7801C582.963 24.7891 584.051 25.8247 585.113 26.887C586.175 27.9493 587.211 29.037 588.22 30.1502C589.229 31.2633 590.21 32.4006 591.164 33.5619C592.115 34.7232 593.04 35.9072 593.936 37.1139C594.831 38.3207 595.695 39.5486 596.529 40.7978C597.364 42.0469 598.167 43.3158 598.94 44.6044C599.712 45.893 600.453 47.1998 601.162 48.5247C601.869 49.8496 602.544 51.1911 603.187 52.5492C603.829 53.9073 604.438 55.2803 605.013 56.6683C605.587 58.0564 606.127 59.4576 606.633 60.8722C607.14 62.2867 607.611 63.7128 608.047 65.1505C608.483 66.5881 608.884 68.0356 609.248 69.4928C609.614 70.9502 609.943 72.4156 610.235 73.889C610.529 75.3624 610.786 76.8422 611.007 78.3284C611.227 79.8145 611.41 81.3051 611.557 82.8001C611.706 84.2953 611.816 85.7932 611.89 87.2936C611.963 88.7941 612 90.2956 612 91.798L612 397.379C612 398.88 611.963 400.382 611.89 401.883C611.816 403.383 611.706 404.881 611.557 406.375C611.41 407.871 611.227 409.362 611.007 410.847C610.786 412.334 610.529 413.814 610.235 415.288C609.943 416.761 609.614 418.226 609.248 419.684C608.884 421.141 608.483 422.588 608.047 424.025C607.611 425.463 607.14 426.889 606.633 428.303C606.127 429.719 605.587 431.121 605.013 432.508C604.438 433.896 603.829 435.269 603.187 436.627C602.544 437.985 601.869 439.327 601.162 440.651C600.453 441.976 599.712 443.283 598.94 444.572C598.167 445.86 597.364 447.129 596.529 448.379C595.695 449.627 594.831 450.856 593.936 452.063C593.04 453.27 592.115 454.453 591.164 455.615C590.21 456.776 589.229 457.913 588.22 459.026C587.211 460.14 586.175 461.228 585.113 462.29C584.051 463.352 582.963 464.388 581.849 465.397C580.736 466.406 579.599 467.386 578.438 468.338C577.276 469.292 576.093 470.216 574.886 471.111C573.68 472.006 572.452 472.871 571.202 473.706C569.954 474.541 568.685 475.344 567.395 476.117C566.107 476.889 564.801 477.629 563.475 478.336C562.15 479.045 560.809 479.72 559.452 480.362C558.093 481.005 556.719 481.614 555.331 482.188C553.944 482.763 552.543 483.304 551.128 483.81C549.714 484.316 548.288 484.787 546.851 485.223C545.412 485.66 543.964 486.06 542.507 486.425C541.049 486.791 539.584 487.12 538.111 487.412C536.637 487.706 535.157 487.963 533.672 488.183C532.186 488.404 530.695 488.587 529.2 488.734C527.705 488.881 526.206 488.992 524.706 489.067C523.206 489.14 521.705 489.177 520.202 489.177L91.798 489.177C90.2956 489.177 88.7941 489.14 87.2936 489.067C85.7932 488.992 84.2953 488.881 82.8001 488.734C81.3051 488.587 79.8145 488.404 78.3285 488.183C76.8424 487.963 75.3626 487.706 73.889 487.412C72.4156 487.12 70.9502 486.791 69.4928 486.425C68.0356 486.06 66.5881 485.66 65.1505 485.223C63.7128 484.787 62.2867 484.316 60.8722 483.81C59.4576 483.304 58.0564 482.763 56.6683 482.188C55.2805 481.614 53.9074 481.005 52.5492 480.362C51.1911 479.72 49.8496 479.045 48.5247 478.336C47.1998 477.629 45.893 476.889 44.6044 476.117C43.3158 475.344 42.0469 474.541 40.7978 473.706C39.5486 472.871 38.3207 472.006 37.1139 471.111C35.9073 470.216 34.7233 469.292 33.5619 468.338C32.4006 467.386 31.2633 466.406 30.1502 465.397C29.037 464.388 27.9493 463.352 26.887 462.29C25.8247 461.228 24.7891 460.14 23.7801 459.026C22.7712 457.913 21.7903 456.776 20.8372 455.615C19.8841 454.453 18.9601 453.27 18.0651 452.063C17.1702 450.856 16.3054 449.627 15.4707 448.379C14.6361 447.129 13.8326 445.86 13.0602 444.572C12.2879 443.283 11.5476 441.976 10.8394 440.651C10.1312 439.327 9.45592 437.985 8.8136 436.627C8.17125 435.269 7.56262 433.896 6.98769 432.508C6.41278 431.121 5.87226 429.719 5.36614 428.303C4.86001 426.889 4.3889 425.463 3.95279 424.025C3.51667 422.588 3.1161 421.141 2.75106 419.684C2.38602 418.226 2.05696 416.761 1.76387 415.288C1.47078 413.814 1.21401 412.334 0.993574 410.847C0.773134 409.362 0.589287 407.871 0.442031 406.375C0.294777 404.881 0.184292 403.383 0.110575 401.883C0.0368582 400.382 0 398.88 0 397.379L0 91.798C0 90.2956 0.0368582 88.7941 0.110575 87.2936C0.184292 85.7932 0.294777 84.2953 0.442031 82.8001C0.589287 81.3051 0.773134 79.8145 0.993574 78.3284C1.21401 76.8422 1.47078 75.3624 1.76387 73.889C2.05696 72.4156 2.38602 70.9502 2.75106 69.4928C3.1161 68.0356 3.51667 66.5881 3.95279 65.1505C4.3889 63.7128 4.86001 62.2867 5.36614 60.8722C5.87226 59.4576 6.41278 58.0564 6.98769 56.6683C7.56262 55.2803 8.17125 53.9073 8.8136 52.5492C9.45592 51.1911 10.1312 49.8496 10.8394 48.5247C11.5476 47.1998 12.2879 45.893 13.0602 44.6044C13.8326 43.3158 14.6361 42.0469 15.4707 40.7978C16.3054 39.5486 17.1702 38.3207 18.0651 37.1139C18.9601 35.9072 19.8841 34.7232 20.8372 33.5619C21.7903 32.4006 22.7712 31.2633 23.7801 30.1502C24.7891 29.037 25.8247 27.9493 26.887 26.887C27.9493 25.8247 29.037 24.7891 30.1502 23.7801C31.2633 22.7712 32.4006 21.7903 33.5619 20.8372C34.7233 19.8841 35.9073 18.96 37.1139 18.065C38.3207 17.1701 39.5486 16.3054 40.7978 15.4708C42.0469 14.6361 43.3158 13.8326 44.6044 13.0603C45.893 12.2878 47.1998 11.5475 48.5247 10.8393C49.8496 10.1312 51.1911 9.45595 52.5492 8.81362C53.9074 8.17129 55.2805 7.56262 56.6683 6.98761C58.0564 6.41274 59.4576 5.87221 60.8722 5.36602C62.2867 4.85996 63.7128 4.38886 65.1505 3.9527C66.5881 3.51669 68.0356 3.1161 69.4928 2.75094C70.9502 2.38592 72.4156 2.05686 73.889 1.76378C75.3626 1.47071 76.8424 1.21394 78.3285 0.993481C79.8145 0.773025 81.3051 0.589221 82.8001 0.442069C84.2953 0.294782 85.7932 0.184281 87.2936 0.110568C88.7941 0.0368555 90.2956 0 91.798 0L91.798 0Z" id="path_1" fill="none" stroke="url(#gradient_1)" stroke-width="30" />
              </g>
            </g>
          </g>
        </g>
        <g id="JR" transform="translate(67.10995 75.55058)">
          <path d="M33.915 51.765C35.105 52.955 36.55 53.55 38.25 53.55L127.5 53.55L127.5 249.39C127.5 270.47 124.27 285.005 117.81 292.995C111.35 300.985 102.85 304.98 92.31 304.98C81.43 304.98 73.015 301.495 67.065 294.525C61.115 287.555 58.14 271.83 58.14 247.35L58.14 231.54C58.14 229.84 57.545 228.225 56.355 226.695C55.165 225.165 53.72 224.4 52.02 224.4L6.12 224.4C4.24293 224.4 2.79766 224.868 1.78418 225.803C0.59473 226.901 0 228.643 0 231.03L0 243.27C0 287.47 8.075 317.73 24.225 334.05C40.375 350.37 62.9 358.53 91.8 358.53C120.7 358.53 143.48 350.37 160.14 334.05C176.8 317.73 185.13 288.66 185.13 246.84L185.13 6.12C185.13 4.42 184.45 2.975 183.09 1.785C181.73 0.595002 180.2 0 178.5 0L38.25 0C36.55 0 35.105 0.595002 33.915 1.785C32.725 2.975 32.13 4.42 32.13 6.12L32.13 46.92C32.13 48.96 32.725 50.575 33.915 51.765L33.915 51.765ZM416.16 353.43C417.52 353.77 420.07 353.94 423.81 353.94L467.67 353.94C471.466 353.94 473.677 353.235 474.304 351.827C474.743 350.838 474.402 349.502 473.28 347.82L393.21 202.47C410.89 194.31 424.915 181.985 435.285 165.495C445.655 149.005 450.84 129.37 450.84 106.59C450.84 75.31 440.81 49.725 420.75 29.835C400.69 9.945 371.96 0 334.56 0L258.57 0C256.87 0 255.425 0.51 254.235 1.53C253.045 2.55 252.45 3.91 252.45 5.61L252.45 348.33C252.45 352.07 254.49 353.94 258.57 353.94L301.92 353.94C306.34 353.94 308.55 352.07 308.55 348.33L308.55 214.71L340.68 214.71L411.57 349.35C413.27 351.73 414.8 353.09 416.16 353.43L416.16 353.43ZM308.55 161.67L308.55 53.55L340.17 53.55C356.15 53.55 369.07 57.8 378.93 66.3C388.79 74.8 393.72 88.4 393.72 107.1C393.72 125.46 388.45 139.145 377.91 148.155C367.37 157.165 352.58 161.67 333.54 161.67L308.55 161.67L308.55 161.67Z" id="Shape" fill="#000000" fill-opacity="0" fill-rule="evenodd" stroke="none" />
        </g>
        <g id="Mask-Group" transform="translate(67.11005 75.5506)">
          <path d="M33.915 51.765C35.105 52.955 36.55 53.55 38.25 53.55L127.5 53.55L127.5 249.39C127.5 270.47 124.27 285.005 117.81 292.995C111.35 300.985 102.85 304.98 92.31 304.98C81.43 304.98 73.015 301.495 67.065 294.525C61.115 287.555 58.14 271.83 58.14 247.35L58.14 231.54C58.14 229.84 57.545 228.225 56.355 226.695C55.165 225.165 53.72 224.4 52.02 224.4L6.12 224.4C4.24293 224.4 2.79766 224.868 1.78418 225.803C0.59473 226.901 0 228.643 0 231.03L0 243.27C0 287.47 8.075 317.73 24.225 334.05C40.375 350.37 62.9 358.53 91.8 358.53C120.7 358.53 143.48 350.37 160.14 334.05C176.8 317.73 185.13 288.66 185.13 246.84L185.13 6.12C185.13 4.42 184.45 2.975 183.09 1.785C181.73 0.595002 180.2 0 178.5 0L38.25 0C36.55 0 35.105 0.595002 33.915 1.785C32.725 2.975 32.13 4.42 32.13 6.12L32.13 46.92C32.13 48.96 32.725 50.575 33.915 51.765L33.915 51.765ZM416.16 353.43C417.52 353.77 420.07 353.94 423.81 353.94L467.67 353.94C471.466 353.94 473.677 353.235 474.304 351.827C474.743 350.838 474.402 349.502 473.28 347.82L393.21 202.47C410.89 194.31 424.915 181.985 435.285 165.495C445.655 149.005 450.84 129.37 450.84 106.59C450.84 75.31 440.81 49.725 420.75 29.835C400.69 9.945 371.96 0 334.56 0L258.57 0C256.87 0 255.425 0.51 254.235 1.53C253.045 2.55 252.45 3.91 252.45 5.61L252.45 348.33C252.45 352.07 254.49 353.94 258.57 353.94L301.92 353.94C306.34 353.94 308.55 352.07 308.55 348.33L308.55 214.71L340.68 214.71L411.57 349.35C413.27 351.73 414.8 353.09 416.16 353.43L416.16 353.43ZM308.55 161.67L308.55 53.55L340.17 53.55C356.15 53.55 369.07 57.8 378.93 66.3C388.79 74.8 393.72 88.4 393.72 107.1C393.72 125.46 388.45 139.145 377.91 148.155C367.37 157.165 352.58 161.67 333.54 161.67L308.55 161.67L308.55 161.67Z" id="path_2" fill="none" fill-rule="evenodd" stroke="none" />
          <g clip-path="url(#mask_3)">
            <g id="Group" transform="translate(-181.46304 -255.5506)">
              <path d="M0 0L1092.71 0L1092.71 908.471L0 908.471L0 0L0 0Z" id="Mask" fill="url(#gradient_2)" fill-rule="evenodd" stroke="none" />
            </g>
          </g>
        </g>
      </g>
    </g>
  </g>
</svg>